<svg width="28" height="29" viewBox="0 0 28 29" fill="none" xmlns="http://www.w3.org/2000/svg">
<path d="M14.3418 3.49121H27.747V7.27476H19.0761V12.9191H25.9434V16.5608H19.0674V24.8279H14.3418V3.49121Z" fill="white"/>
<path d="M6.25171 10.4734C6.25171 11.8114 6.25171 13.4418 4.44816 14.1063C6.29506 14.7532 6.25171 16.1266 6.25171 17.562V22.8785C6.25171 23.8886 6.65057 24.5 7.36158 24.6506C7.51781 24.7045 7.68241 24.7285 7.84715 24.7215H9.58133V28.2658H6.71994C3.66779 28.2658 1.98563 26.4937 1.98563 23.2063V16.9152C1.96399 16.5922 1.82463 16.2893 1.59507 16.0662C1.36551 15.8431 1.06244 15.716 0.745696 15.7101H0V12.6H0.745696C1.06876 12.5956 1.37778 12.4644 1.60865 12.2334C1.83953 12.0024 1.97452 11.6895 1.98563 11.3595V4.97975C1.98563 1.74557 3.6331 0 6.71994 0H9.60734V3.49114H7.87317C7.70822 3.49163 7.54438 3.51854 7.3876 3.57089C6.67658 3.75696 6.27772 4.35949 6.27772 5.34304L6.25171 10.4734Z" fill="white"/>
</svg>
